<?xml version="1.0" standalone="no"?>
<!DOCTYPE svg PUBLIC "-//W3C//DTD SVG 20010904//EN"
 "http://www.w3.org/TR/2001/REC-SVG-20010904/DTD/svg10.dtd">
<svg version="1.0" xmlns="http://www.w3.org/2000/svg"
 width="736.000000pt" height="736.000000pt" viewBox="0 0 736.000000 736.000000"
 preserveAspectRatio="xMidYMid meet">
<metadata>
Created by potrace 1.14, written by Peter Selinger 2001-2017
</metadata>
<g transform="translate(0.000000,736.000000) scale(0.100000,-0.100000)"
fill="#000000" stroke="none">
<path d="M2817 7354 c-1 -1 -51 -4 -112 -8 -60 -3 -121 -8 -135 -10 -14 -3
-61 -10 -105 -16 -44 -7 -107 -18 -140 -26 -33 -9 -69 -17 -80 -18 -11 -2 -21
-5 -22 -6 -2 -1 -7 -4 -13 -5 -5 -1 -11 -3 -12 -5 -2 -1 -10 -3 -18 -5 -77
-16 -379 -153 -410 -185 -5 -6 -222 -136 -345 -207 -118 -69 -236 -196 -303
-329 -22 -43 -61 -153 -68 -191 -9 -46 -24 -72 -46 -79 -13 -4 -52 -24 -87
-45 -34 -22 -67 -39 -71 -39 -5 0 -10 -3 -12 -7 -1 -5 -25 -26 -53 -48 -74
-58 -107 -92 -195 -201 -33 -40 -124 -204 -114 -204 4 0 2 -6 -3 -12 -6 -7
-22 -49 -36 -93 -50 -159 -61 -240 -61 -455 0 -165 7 -263 29 -379 1 -9 6 -41
11 -71 8 -58 10 -68 14 -72 1 -2 3 -14 4 -28 4 -33 14 -98 21 -130 2 -14 7
-36 10 -50 2 -14 7 -40 10 -59 3 -19 7 -37 9 -40 2 -3 7 -27 10 -54 4 -26 17
-100 31 -165 21 -105 28 -141 40 -207 8 -48 86 -378 90 -385 12 -20 -14 -17
-46 4 -136 92 -263 128 -339 98 -106 -43 -136 -192 -80 -397 12 -44 24 -88 25
-98 5 -23 51 -193 76 -277 11 -36 24 -81 29 -100 5 -19 24 -82 42 -140 17 -58
33 -109 34 -115 4 -23 73 -214 95 -265 60 -142 171 -245 332 -310 40 -16 83
-31 97 -34 94 -18 86 -10 106 -100 10 -44 19 -85 20 -91 2 -5 6 -23 9 -40 3
-16 12 -55 20 -85 8 -30 16 -66 18 -80 3 -14 14 -63 25 -110 11 -47 26 -112
33 -145 7 -33 13 -62 14 -65 1 -3 10 -41 20 -85 21 -94 26 -99 181 -205 60
-40 110 -77 112 -82 2 -4 8 -8 13 -8 7 0 123 -78 174 -117 6 -5 30 -21 55 -38
25 -16 51 -36 58 -42 7 -7 17 -13 22 -13 5 0 15 -6 22 -13 7 -7 101 -73 208
-147 107 -74 200 -138 205 -142 6 -5 44 -32 85 -60 57 -40 84 -52 112 -53 21
0 38 -2 38 -5 0 -3 24 -4 52 -2 29 2 60 3 68 3 93 -3 333 0 340 4 5 3 11 1 14
-4 3 -5 21 -5 41 -1 20 4 38 4 41 -1 3 -5 13 -5 23 1 10 5 21 7 24 4 4 -5 495
-8 538 -5 6 1 96 59 114 74 6 5 64 46 130 92 66 47 129 91 140 99 11 8 45 32
76 53 139 96 555 388 559 394 3 3 15 12 28 18 13 7 31 19 40 26 9 8 37 29 61
47 42 31 53 51 66 118 2 14 16 77 30 140 15 63 28 124 30 135 23 105 28 133
31 150 2 11 17 79 34 150 16 72 32 146 35 165 3 19 8 40 9 46 2 6 35 19 73 28
76 20 234 93 273 125 102 86 151 154 197 276 54 141 142 433 228 755 41 153
37 137 64 248 60 249 -49 395 -249 331 -40 -13 -154 -75 -173 -93 -7 -7 -23
-19 -36 -26 -23 -12 -24 -11 -17 11 4 13 9 33 11 44 8 37 15 70 20 93 2 13 6
31 9 40 3 9 8 31 10 47 3 17 10 45 16 64 5 19 8 37 5 39 -3 3 0 11 6 19 6 7 9
13 6 13 -3 0 0 19 5 43 12 51 8 31 58 282 47 233 45 224 55 285 4 25 9 54 11
65 9 43 14 72 19 110 3 22 8 58 12 80 4 22 7 49 9 60 1 11 4 38 8 60 31 202
27 441 -9 620 -23 112 -38 158 -86 261 -10 22 -19 44 -19 48 0 4 -5 12 -10 19
-6 7 -29 41 -52 77 -83 130 -253 277 -414 358 -60 30 -61 31 -73 89 -43 190
-179 398 -321 489 -25 16 -47 31 -50 34 -3 3 -30 18 -60 34 -30 16 -79 44
-108 63 -29 18 -56 33 -61 33 -5 0 -11 4 -13 8 -4 12 -202 124 -300 171 -79
37 -179 74 -278 102 -59 16 -70 19 -100 24 -14 3 -47 9 -75 15 -27 5 -70 12
-95 15 -25 4 -61 8 -80 10 -94 12 -583 27 -593 19z m538 -189 c28 -3 66 -8 85
-9 30 -3 97 -15 176 -30 55 -11 160 -39 169 -46 6 -4 23 -10 39 -14 63 -15
265 -119 401 -206 78 -50 174 -107 199 -118 56 -24 157 -104 206 -163 79 -95
138 -227 155 -345 4 -27 12 -57 16 -66 5 -9 49 -36 97 -58 330 -155 507 -409
549 -790 11 -95 5 -334 -11 -425 -3 -16 -8 -50 -11 -75 -3 -25 -10 -70 -15
-100 -10 -59 -17 -102 -25 -152 -3 -18 -8 -46 -12 -63 -3 -16 -7 -37 -9 -45
-6 -44 -16 -97 -20 -112 -3 -10 -7 -30 -10 -45 -2 -16 -7 -39 -10 -53 -3 -14
-8 -36 -10 -50 -2 -14 -7 -36 -10 -50 -6 -24 -9 -42 -18 -92 -4 -22 -35 -155
-52 -223 -1 -5 -5 -26 -9 -45 -3 -19 -13 -64 -21 -100 -9 -36 -17 -77 -19 -92
-2 -15 -9 -46 -16 -70 -7 -24 -13 -50 -15 -58 -1 -8 -5 -28 -7 -45 -3 -16 -10
-50 -17 -75 -6 -25 -13 -56 -15 -70 -9 -49 -14 -76 -35 -165 -11 -49 -22 -99
-24 -110 -2 -11 -11 -51 -20 -90 -10 -38 -19 -86 -22 -105 -3 -19 -8 -38 -10
-41 -2 -4 -6 -24 -10 -45 -3 -22 -12 -64 -19 -95 -18 -68 -23 -97 -24 -126 -1
-13 -5 -23 -9 -23 -5 0 -5 28 -1 63 4 34 10 98 14 142 9 110 14 170 20 235 3
30 8 82 10 115 3 33 8 87 11 120 3 33 7 85 9 115 3 30 7 80 10 110 8 82 15
158 20 230 2 36 6 83 9 105 3 22 8 74 11 115 3 41 8 91 10 110 3 19 7 71 11
115 3 44 7 94 9 110 1 17 6 71 10 120 12 129 7 265 -11 345 -3 13 -7 38 -10
55 -8 63 -47 206 -84 310 -150 424 -431 718 -810 848 -72 25 -94 30 -170 43
-19 3 -38 8 -41 10 -22 13 -267 17 -969 17 -729 0 -869 -2 -970 -19 -99 -15
-287 -77 -360 -117 -19 -10 -53 -29 -75 -40 -22 -12 -46 -28 -53 -35 -8 -6
-23 -17 -34 -23 -42 -22 -193 -168 -243 -233 -11 -15 -25 -32 -30 -39 -6 -6
-29 -41 -51 -77 -141 -225 -226 -472 -269 -787 -7 -49 -7 -203 -1 -253 3 -19
7 -66 11 -105 3 -38 8 -88 10 -110 2 -22 7 -71 10 -110 3 -38 8 -95 11 -125
11 -133 15 -179 19 -235 2 -33 5 -60 5 -60 1 0 3 -18 5 -40 2 -22 6 -71 10
-110 3 -38 8 -101 11 -138 2 -38 6 -81 9 -95 2 -15 7 -65 10 -112 3 -47 8 -96
10 -110 4 -23 12 -125 20 -230 2 -39 6 -74 20 -197 5 -46 -13 -11 -25 49 -7
35 -14 68 -16 73 -1 6 -4 26 -8 45 -3 19 -10 50 -15 68 -5 18 -10 33 -9 35 0
2 -6 37 -16 87 -2 8 -6 29 -10 45 -20 84 -26 112 -30 135 -3 14 -8 36 -11 50
-3 14 -8 38 -11 54 -2 16 -6 32 -8 35 -2 3 -7 22 -10 41 -3 19 -12 66 -21 105
-9 38 -18 81 -20 95 -3 14 -9 43 -14 65 -6 22 -13 55 -16 74 -3 19 -8 37 -10
41 -4 6 -13 45 -19 85 -2 11 -6 31 -10 45 -3 14 -8 36 -11 50 -2 14 -10 48
-15 75 -6 28 -13 61 -16 74 -3 12 -12 53 -20 90 -9 36 -18 77 -20 91 -2 14 -9
45 -14 70 -14 59 -19 87 -26 130 -3 19 -9 50 -14 69 -5 19 -7 38 -4 43 3 4 0
8 -6 8 -6 0 -8 4 -5 10 3 5 1 27 -4 47 -5 21 -12 56 -15 78 -3 22 -8 52 -11
68 -11 56 -15 83 -20 122 -3 22 -7 51 -10 65 -34 185 -36 448 -4 600 6 30 13
62 14 70 2 8 4 16 5 18 2 1 3 5 5 10 1 4 5 21 10 37 17 64 84 193 133 257 62
83 167 182 205 194 9 3 17 9 17 13 0 5 52 35 116 67 63 32 119 65 124 73 4 9
11 36 14 61 20 150 79 271 181 373 84 86 84 85 166 128 35 19 66 37 67 42 2 4
8 7 13 7 6 0 67 37 137 82 132 84 251 148 362 193 71 28 268 80 340 90 81 10
134 16 205 24 80 8 585 6 660 -4z m535 -1365 c30 -5 75 -12 100 -15 62 -10
191 -51 270 -87 135 -62 306 -197 389 -308 14 -19 29 -37 32 -40 28 -22 138
-224 189 -345 42 -100 85 -268 109 -425 20 -131 20 -205 -4 -442 -4 -31 -8
-78 -10 -105 -2 -26 -7 -77 -10 -113 -8 -89 -12 -131 -20 -225 -4 -44 -8 -91
-10 -105 -2 -14 -6 -63 -10 -110 -3 -47 -8 -101 -10 -120 -2 -19 -7 -69 -10
-110 -3 -41 -8 -91 -10 -110 -3 -19 -7 -69 -11 -110 -8 -95 -11 -130 -18 -210
-3 -36 -8 -90 -11 -120 -2 -30 -7 -77 -10 -105 -2 -27 -7 -79 -10 -115 -7 -87
-14 -165 -21 -221 -3 -26 -7 -73 -9 -105 -6 -88 -14 -174 -20 -224 -3 -25 -7
-74 -10 -110 -2 -36 -6 -87 -10 -115 -6 -56 -53 -314 -71 -395 -3 -14 -6 -32
-8 -40 -1 -8 -8 -49 -15 -91 -15 -88 2 -71 -233 -232 -79 -54 -224 -154 -323
-222 -99 -68 -193 -133 -210 -145 -16 -11 -102 -70 -190 -131 l-160 -109 -265
-1 c-146 0 -274 0 -285 0 -11 0 -137 0 -280 1 l-260 0 -115 80 c-63 43 -173
118 -244 167 -71 48 -135 93 -142 100 -7 7 -15 13 -17 13 -5 0 -121 77 -172
115 -11 7 -99 68 -195 134 -219 150 -217 149 -224 191 -8 56 -16 98 -36 200
-11 52 -22 109 -24 125 -3 17 -8 41 -11 55 -3 14 -8 39 -10 55 -3 17 -8 37
-10 45 -2 8 -7 51 -10 95 -4 44 -9 94 -11 110 -1 17 -5 62 -9 100 -3 39 -8 90
-10 115 -3 25 -7 77 -9 115 -3 39 -7 84 -10 100 -4 29 -14 138 -21 236 -2 25
-6 72 -9 105 -4 32 -8 82 -11 109 -5 62 -15 176 -21 235 -5 59 -15 165 -19
215 -12 141 -16 186 -21 230 -3 28 -7 75 -9 105 -2 30 -6 78 -9 105 -5 47 -7
73 -21 235 -3 36 -8 85 -10 110 -3 25 -7 72 -11 105 -3 33 -7 78 -9 100 -2 22
-7 81 -11 130 -16 181 -8 278 37 475 67 293 209 564 383 735 77 75 182 155
203 155 7 0 13 4 13 8 0 10 156 83 180 83 3 1 11 5 18 11 6 6 12 7 12 3 0 -4
6 -3 13 3 11 9 35 16 101 28 16 3 32 7 36 9 3 2 35 7 70 10 36 4 67 9 69 11 8
8 1687 2 1741 -6z m-3419 -2312 c33 -18 91 -56 130 -85 39 -29 74 -53 79 -53
9 0 24 -46 34 -105 3 -16 24 -113 47 -215 51 -234 48 -220 54 -255 3 -16 8
-38 11 -48 3 -11 8 -29 9 -40 4 -25 33 -161 111 -512 2 -11 6 -29 8 -40 2 -11
9 -40 15 -65 19 -82 16 -84 -100 -41 -161 61 -254 164 -314 351 -10 30 -20 62
-23 70 -8 25 -10 30 -53 170 -36 120 -50 169 -64 220 -2 8 -4 15 -5 15 -1 0
-3 7 -5 15 -1 8 -15 60 -30 115 -15 55 -28 107 -30 115 -2 8 -19 74 -37 145
-72 275 -25 344 163 243z m5245 17 c33 -50 22 -119 -76 -480 -28 -104 -53
-197 -55 -205 -2 -8 -8 -28 -15 -45 -6 -16 -10 -30 -9 -30 3 0 -84 -288 -98
-325 -3 -8 -7 -19 -8 -25 -11 -43 -60 -155 -82 -184 -67 -90 -154 -150 -283
-195 -25 -9 -48 -16 -53 -16 -8 0 -8 4 23 145 12 55 23 109 26 120 2 11 11 52
19 90 9 39 22 104 31 145 8 41 19 93 25 115 6 22 13 51 16 65 2 13 11 56 20
95 8 38 17 79 18 90 2 11 15 72 30 135 14 63 27 124 30 135 2 11 4 20 5 20 1
0 3 9 4 20 8 57 39 175 47 175 5 0 46 27 91 60 45 33 87 60 95 60 7 0 13 4 13
9 0 5 8 12 18 15 9 4 33 13 52 21 56 22 97 19 116 -10z"/>
<path d="M6383 7341 c-67 -17 -190 -70 -221 -95 -7 -6 -36 -31 -65 -56 -216
-184 -275 -505 -141 -761 20 -38 40 -69 45 -69 5 0 9 -6 9 -13 0 -14 85 -98
145 -144 40 -30 142 -83 167 -87 7 -1 18 -4 23 -8 15 -9 131 -29 174 -30 301
-4 550 166 649 444 22 63 26 89 25 188 0 134 -5 161 -44 253 -46 109 -123 207
-209 267 -19 13 -37 27 -40 30 -8 10 -94 48 -161 71 -88 30 -256 35 -356 10z
m341 -271 c114 -49 158 -168 101 -280 -14 -27 -36 -57 -50 -66 l-25 -16 30
-28 c16 -15 32 -40 36 -56 3 -16 17 -67 29 -114 34 -125 36 -138 24 -146 -13
-7 -148 -8 -156 -1 -2 3 -6 16 -8 29 -19 112 -52 212 -80 235 -27 24 -34 25
-110 25 -25 0 -51 0 -58 -1 -9 -1 -12 -35 -12 -142 0 -89 -3 -143 -10 -145
-31 -11 -128 -10 -139 2 -10 10 -13 89 -12 359 1 295 3 347 16 355 8 6 96 10
199 9 153 0 190 -4 225 -19z"/>
<path d="M6439 6910 c-1 -22 -1 -51 -1 -65 0 -73 -8 -68 101 -63 90 3 102 6
120 27 30 35 28 86 -5 116 -25 23 -35 25 -120 25 l-94 0 -1 -40z"/>
</g>
</svg>
